# AST/ASF file generated using VICON BodyLanguage
# -----------------------------------------------
:version 1.10
:name VICON
:units
  mass 1.0
  length 0.45
  angle deg
:documentation
   .ast/.asf automatically generated from VICON data using
   VICON BodyBuilder and BodyLanguage model FoxedUp or BRILLIANT.MOD
:root
   order TX TY TZ RX RY RZ
   axis XYZ
   position 0 0 0  
   orientation 0 0 0 
:bonedata
  begin
     id 1 
     name lhipjoint
     direction 0.54267 -0.795011 0.271047 
     length 2.39899 
     axis 0 0 0  XYZ
  end
  begin
     id 2 
     name lfemur
     direction 0.34202 -0.939693 0  
     length 7.49701  
     axis 0 0 20  XYZ
    dof rx ry rz
    limits (-160.0 20.0)
           (-70.0 70.0)
           (-60.0 70.0)
  end
  begin
     id 3 
     name ltibia
     direction 0.34202 -0.939693 0   
     length 8.1668   
     axis 0 0 20   XYZ
    dof rx
    limits (-10.0 170.0)
  end
  begin
     id 4 
     name lfoot
     direction 0.0736283 -0.202292 0.976554   
     length 2.13544   
     axis -90 7.62852e-016 20   XYZ
    dof rx rz
    limits (-45.0 90.0)
           (-70.0 20.0)
  end
  begin
     id 5 
     name ltoes
     direction 1.53557e-011 -4.22024e-011 1   
     length 1.07411   
     axis -90 7.62852e-016 20   XYZ
    dof rx
    limits (-90.0 20.0)
  end
  begin
     id 6 
     name rhipjoint
     direction -0.538061 -0.797813 0.272002   
     length 2.39057  
     axis 0 0 0  XYZ 
  end
  begin
     id 7 
     name rfemur
     direction -0.34202 -0.939693 0   
     length 7.50152   
     axis 0 0 -20   XYZ
    dof rx ry rz
    limits (-160.0 20.0)
           (-70.0 70.0)
           (-70.0 60.0)
  end
  begin
     id 8 
     name rtibia
     direction -0.34202 -0.939693 0   
     length 8.05793   
     axis 0 0 -20   XYZ
    dof rx
    limits (-10.0 170.0)
 end
 begin
     id 9 
     name rfoot
     direction -0.0765195 -0.210236 0.974652   
     length 2.28698  
     axis -90 -7.62852e-016 -20   XYZ
    dof rx rz
    limits (-45.0 90.0)
           (-20.0 70.0)
  end
  begin
     id 10 
     name rtoes
     direction -1.53542e-011 -4.21847e-011 1   
     length 1.14762   
     axis -90 -7.62852e-016 -20   XYZ
    dof rx
    limits (-90.0 20.0)
  end
  begin
     id 11 
     name lowerback
     direction -0.0217239 0.996592 -0.0795765   
     length 2.08176   
     axis 0 0 0   XYZ
    dof rx ry rz
    limits (-20.0 45.0)
           (-30.0 30.0)
           (-30.0 30.0)
  end
  begin
     id 12 
     name upperback
     direction -0.00563773 0.999651 -0.0258155   
     length 2.08898   
     axis 0 0 0   XYZ
    dof rx ry rz
    limits (-20.0 45.0)
           (-30.0 30.0)
           (-30.0 30.0)
  end
  begin
     id 13 
     name thorax
     direction 0.0032706 0.999923 0.0119599   
     length 2.0968   
     axis 0 0 0   XYZ
    dof rx ry rz
    limits (-20.0 45.0)
           (-30.0 30.0)
           (-30.0 30.0)
  end
  begin
     id 14 
     name lowerneck
     direction -0.0285886 0.99568 0.0883427   
     length 1.81272   
     axis 0 0 0   XYZ
    dof rx ry rz
    limits (-20.0 45.0)
           (-30.0 30.0)
           (-30.0 30.0)
  end
  begin
     id 15 
     name upperneck
     direction 0.0807535 0.97985 -0.18268   
     length 1.82518   
     axis 0 0 0   XYZ
    dof rx ry rz
    limits (-20.0 45.0)
           (-30.0 30.0)
           (-30.0 30.0)
  end
  begin
     id 16
     name head
     direction 0.0236605 0.997053 -0.0729767  
     length 1.84443  
     axis 0 0 0   XYZ
    dof rx ry rz
    limits (-20.0 45.0)
           (-30.0 30.0)
           (-30.0 30.0)
  end
  begin
     id 17 
     name lclavicle
     direction 0.918986 0.39378 -0.0200683  
     length 3.27822  
     axis 0 0 0   XYZ
    dof ry rz
    limits (-20.0 10.0)
           (0.0 20.0)
  end
  begin
     id 18 
     name lhumerus
     direction 1 -4.4897e-011 2.09544e-027   
     length 5.5568   
     axis 180 -30 -90   XYZ
    dof rx ry rz
    limits (-60.0 90.0)
           (-90.0 90.0)
           (-90.0 90.0)
  end
  begin
     id 19
     name lradius
     direction 1 -4.48957e-011 -1.27696e-026   
     length 3.63979   
     axis 180 -30 -90   XYZ
    dof rx
    limits (-10.0 170.0)
  end
  begin
     id 20
     name lwrist
     direction 1 -4.49001e-011 -1.49001e-026   
     length 1.8199   
     axis 9.0955e-015 90 90   XYZ
    dof ry
    limits (-180.0 0.0)
 end
  begin
     id 21 
     name lhand
     direction 1 -4.48709e-011 -2.9758e-026   
     length 0.569419   
     axis 1.90115e-014 90 90   XYZ
    dof rx rz
    limits (-90.0 90.0)
           (-45.0 45.0)
  end
  begin
     id 22 
     name lfingers
     direction 1 -4.49175e-011 -5.96505e-026   
     length 0.45908   
     axis 3.80223e-014 90 90   XYZ
    dof rx
    limits (0.0 90.0)
  end
  begin
     id 23
     name lthumb
     direction 0.707107 -6.34864e-011 0.707107   
     length 0.65915   
     axis -90 45 -3.84942e-014   XYZ
    dof rx rz
    limits (-45.0 45.0)
           (-45.0 45.0)
  end
  begin
     id 24 
     name rclavicle
     direction -0.911913 0.396426 -0.106115   
     length 3.46301  
     axis 0 0 0   XYZ 
    dof ry rz
    limits (-10.0 20.0)
           (-20.0 0.0)
  end
  begin
     id 25 
     name rhumerus
     direction -1 -4.48965e-011 7.78516e-028  
     length 5.34339   
     axis 180 30 90   XYZ
    dof rx ry rz
    limits (-90.0 60.0)
           (-90.0 90.0)
           (-90.0 90.0)
  end
  begin
     id 26 
     name rradius
     direction -1 -4.48948e-011 -5.79823e-027   
     length 3.65101   
     axis 180 30 90   XYZ
    dof rx
    limits (-10.0 170.0)
  end
  begin
     id 27 
     name rwrist
     direction -1 -4.48995e-011 -1.48996e-026   
     length 1.8255   
     axis 9.0955e-015 -90 -90   XYZ
    dof ry
    limits (-180.0 0.0)
  end
  begin
     id 28
     name rhand
     direction -1 -4.48957e-011 -2.97937e-026   
     length 0.694249   
     axis 1.90115e-014 -90 -90   XYZ
    dof rx rz
    limits (-90.0 90.0)
           (-45.0 45.0)
  end
  begin
     id 29
     name rfingers
     direction -1 -4.4898e-011 -5.95943e-026   
     length 0.559721   
     axis 3.80223e-014 -90 -90   XYZ
    dof rx
    limits (0.0 90.0)
  end
  begin
     id 30
     name rthumb
     direction -0.707107 -6.34969e-011 0.707107   
     length 0.803651   
     axis -90 -45 3.84942e-014   XYZ
    dof rx rz
    limits (-45.0 45.0)
           (-45.0 45.0)
  end
:hierarchy
  begin
    root lhipjoint rhipjoint lowerback
    lhipjoint lfemur
    lfemur ltibia
    ltibia lfoot
    lfoot ltoes
    rhipjoint rfemur
    rfemur rtibia
    rtibia rfoot
    rfoot rtoes
    lowerback upperback
    upperback thorax
    thorax lowerneck lclavicle rclavicle
    lowerneck upperneck
    upperneck head
    lclavicle lhumerus
    lhumerus lradius
    lradius lwrist
    lwrist lhand lthumb
    lhand lfingers
    rclavicle rhumerus
    rhumerus rradius
    rradius rwrist
    rwrist rhand rthumb
    rhand rfingers
  end

#!OML:ASF H:\Terrain\Walking\May29\JustinRory\rory.ASF
:FULLY-SPECIFIED
:DEGREES
93
root 11.0158 18.085 -17.7501 2.0026 55.5503 -0.0846704
lowerback -0.43969 -2.05048 -7.35105
upperback 0.0420677 -2.66461 -1.44198
thorax 0.557472 -1.33945 2.59509
lowerneck 2.6711 -17.3536 -18.1139
upperneck 24.6285 -28.2745 19.1631
head 13.4992 -13.2069 6.10095
rclavicle -4.67144e-015 -1.90833e-014
rhumerus -25.6277 -8.28921 -64.8457
rradius 41.2328
rwrist 4.39927
rhand -9.66962 40.7018
rfingers 7.12502
rthumb 16.3018 11.367
lclavicle -4.67144e-015 -1.90833e-014
lhumerus -33.8353 11.8738 79.0799
lradius 22.9703
lwrist -10.1466
lhand -19.3687 20.1839
lfingers 7.12502
lthumb 6.94929 50.0498
rfemur -12.6543 14.9462 12.4594
rtibia 24.1504
rfoot -12.3088 -4.71398
rtoes 8.57223
lfemur -4.60057 -0.629256 -16.7494
ltibia 23.1162
lfoot -20.8382 11.1258
ltoes -5.779
94
root 11.0045 18.0778 -17.7726 2.18564 55.8981 0.133929
lowerback -0.233458 -2.19452 -7.51226
upperback 0.0206374 -2.87563 -1.43235
thorax 0.448973 -1.44077 2.69912
lowerneck 2.70708 -17.4283 -17.8197
upperneck 24.2333 -28.2715 19.0128
head 13.2337 -13.2126 5.99884
rclavicle -2.16178e-014 -1.59028e-014
rhumerus -24.7931 -8.86197 -64.6781
rradius 40.6958
rwrist 4.07342
rhand -9.11347 39.2635
rfingers 7.12502
rthumb 16.8372 9.97345
lclavicle -2.16178e-014 -1.59028e-014
lhumerus -33.6978 12.8518 78.9351
lradius 22.7961
lwrist -10.5506
lhand -19.7813 20.1123
lfingers 7.12502
lthumb 6.55093 49.991
rfemur -12.7085 14.913 12.2754
rtibia 24.2777
rfoot -12.2754 -5.09112
rtoes 7.54733
lfemur -5.02441 -0.220374 -16.7833
ltibia 23.602
lfoot -20.6636 10.1995
ltoes -4.74109
95
root 10.9972 18.0726 -17.7971 2.33801 56.2353 0.266995
lowerback -0.121064 -2.23396 -7.57038
upperback 0.00197057 -2.93925 -1.44364
thorax 0.37541 -1.46947 2.72383
lowerneck 2.56379 -17.728 -16.8453
upperneck 23.9431 -28.3992 18.1363
head 12.8113 -13.2562 5.4996
rclavicle -1.54307e-014 1.03368e-014
rhumerus -24.0144 -9.83274 -64.371
rradius 39.8164
rwrist 3.7148
rhand -8.87062 38.2831
rfingers 7.12502
rthumb 17.071 9.01313
lclavicle -1.54307e-014 1.03368e-014
lhumerus -33.5794 13.0446 79.1291
lradius 22.8775
lwrist -10.3287
lhand -19.837 20.0848
lfingers 7.12502
lthumb 6.49717 49.9651
rfemur -12.7904 14.7848 12.1148
rtibia 24.3648
rfoot -12.2607 -5.31976
rtoes 7.00769
lfemur -5.52343 -0.163627 -16.8622
ltibia 24.194
lfoot -20.6803 9.86476
ltoes -4.43894
96
root 10.9934 18.0699 -17.8212 2.41833 56.6466 0.325761
lowerback 0.0476124 -2.12369 -7.45089
upperback -0.11561 -2.81366 -1.58649
thorax 0.133185 -1.39501 2.52281
lowerneck 2.77141 -18.0218 -16.2142
upperneck 23.7733 -28.6954 17.6918
head 12.5654 -13.3929 5.21491
rclavicle 5.24792e-014 -7.15625e-015
rhumerus -23.7735 -11.4829 -63.8856
rradius 38.8792
rwrist 3.60114
rhand -8.36351 37.9429
rfingers 7.12502
rthumb 17.559 8.71584
lclavicle 5.24792e-014 -7.15625e-015
lhumerus -33.4414 12.1906 79.4135
lradius 22.9204
lwrist -9.73104
lhand -20.1486 20.5662
lfingers 7.12502
lthumb 6.19639 50.4555
rfemur -12.7905 14.8932 11.9931
rtibia 24.3962
rfoot -12.3413 -5.6527
rtoes 7.89605
lfemur -6.0754 -0.326884 -16.904
ltibia 24.9258
lfoot -20.8587 9.46931
ltoes -2.92761
97
root 10.9851 18.067 -17.8471 2.11114 57.0427 -0.140001
lowerback 0.350185 -2.03607 -6.93158
upperback -0.310057 -2.73441 -1.74581
thorax -0.277241 -1.33875 2.0895
lowerneck 2.90863 -18.2073 -16.1044
upperneck 23.8148 -29.0225 17.7811
head 12.6279 -13.5296 5.1741
rclavicle -5.81197e-014 1.59028e-014
rhumerus -23.613 -13.4742 -63.5106
rradius 38.0848
rwrist 3.25571
rhand -7.30078 37.4174
rfingers 7.12502
rthumb 18.5815 8.28491
lclavicle -5.81197e-014 1.59028e-014
lhumerus -33.2869 11.3571 79.6819
lradius 22.8832
lwrist -8.77415
lhand -21.8595 21.9324
lfingers 7.12502
lthumb 4.54446 51.8637
rfemur -12.8487 14.9801 12.1822
rtibia 24.3773
rfoot -12.3861 -5.9344
rtoes 9.05827
lfemur -6.74409 -0.166178 -16.5801
ltibia 25.7351
lfoot -20.8306 8.7994
ltoes -3.00058
98
root 10.9702 18.0592 -17.8727 1.66231 57.2711 -0.833394
lowerback 0.558103 -1.99703 -6.45302
upperback -0.41843 -2.70472 -1.76984
thorax -0.531236 -1.31668 1.81086
lowerneck 2.75286 -18.3507 -16.1218
upperneck 23.7522 -29.2866 18.0085
head 12.7402 -13.6216 5.17705
rclavicle -1.01977e-013 -1.59028e-015
rhumerus -23.0604 -15.6019 -63.1661
rradius 37.2267
rwrist 3.16017
rhand -6.58264 37.0916
rfingers 7.12502
rthumb 19.2722 8.02651
lclavicle -1.01977e-013 -1.59028e-015
lhumerus -33.2435 11.7619 79.7431
lradius 22.9362
lwrist -8.91248
lhand -23.2115 22.4625
lfingers 7.12502
lthumb 3.23886 52.4177
rfemur -13.0182 14.8715 12.5175
rtibia 24.3205
rfoot -12.2408 -6.12213
rtoes 8.54427
lfemur -7.45905 0.172465 -16.1084
ltibia 26.5614
lfoot -20.7031 7.85184
ltoes -3.30575
99
root 10.9588 18.0507 -17.8954 1.38546 57.3955 -1.11585
lowerback 0.77291 -1.9401 -6.43115
upperback -0.425608 -2.64794 -1.70085
thorax -0.661419 -1.285 1.87797
lowerneck 2.66488 -18.4102 -16.1057
upperneck 23.4829 -29.3657 18.1803
head 12.6949 -13.6484 5.20445
rclavicle -1.57537e-014 -3.18055e-015
rhumerus -22.4188 -17.56 -62.6618
rradius 36.2647
rwrist 3.60552
rhand -6.6197 37.1427
rfingers 7.12502
rthumb 19.2365 8.07405
lclavicle -1.57537e-014 -3.18055e-015
lhumerus -33.2553 12.3 79.8041
lradius 23.1463
lwrist -9.51403
lhand -23.4357 22.4192
lfingers 7.12502
lthumb 3.02237 52.3775
rfemur -12.9816 15.1202 12.6458
rtibia 24.2321
rfoot -12.1125 -6.52531
rtoes 8.14093
lfemur -7.94064 0.333554 -15.9071
ltibia 27.4222
lfoot -20.8424 7.03276
ltoes -4.07611
100
root 10.955 18.0471 -17.9236 1.13152 57.5788 -1.20712
lowerback 1.12364 -1.82623 -6.48968
upperback -0.40937 -2.52616 -1.66302
thorax -0.84713 -1.21905 1.96123
lowerneck 2.62324 -18.4674 -16.0212
upperneck 23.2251 -29.4316 18.3141
head 12.6231 -13.6688 5.21951
rclavicle -4.43041e-014 -2.70347e-014
rhumerus -21.8724 -19.9435 -61.906
rradius 35.1352
rwrist 4.67454
rhand -6.36682 37.6667
rfingers 7.12502
rthumb 19.4797 8.62254
lclavicle -4.43041e-014 -2.70347e-014
lhumerus -32.9277 11.0085 80.2987
lradius 23.3654
lwrist -8.3489
lhand -23.4319 22.7823
lfingers 7.12502
lthumb 3.02601 52.7405
rfemur -12.7594 15.3568 12.6574
rtibia 24.1638
rfoot -12.1036 -6.86924
rtoes 8.39063
lfemur -8.27449 0.264291 -15.8746
ltibia 28.2856
lfoot -21.0364 6.66848
ltoes -5.77307
101
root 10.9465 18.0463 -17.9598 0.817811 57.9314 -1.501
lowerback 1.12355 -1.78028 -6.60679
upperback -0.117732 -2.45224 -1.44746
thorax -0.537852 -1.19727 2.24086
lowerneck 2.22976 -18.6378 -16.0797
upperneck 22.7738 -29.6351 18.5892
head 12.6237 -13.7337 5.22323
rclavicle 1.73191e-014 -2.38542e-015
rhumerus -20.4859 -22.7539 -61.0742
rradius 33.6891
rwrist 6.16195
rhand -6.02123 38.0688
rfingers 7.12502
rthumb 19.8119 9.05859
lclavicle 1.73191e-014 -2.38542e-015
lhumerus -32.0387 11.0755 80.873
lradius 23.3264
lwrist -8.21833
lhand -23.001 22.7638
lfingers 7.12502
lthumb 3.44217 52.7157
rfemur -12.6658 15.179 12.749
rtibia 24.1329
rfoot -12.0373 -7.06424
rtoes 7.93515
lfemur -8.7871 -0.0150209 -15.7265
ltibia 29.1111
lfoot -21.2874 6.40672
ltoes -6.95274
102
root 10.9312 18.0434 -17.9964 0.47857 58.4625 -1.98953
lowerback 0.985529 -1.80442 -6.69134
upperback 0.200807 -2.45907 -1.17163
thorax -0.115318 -1.22118 2.55956
lowerneck 1.78362 -18.8718 -15.998
upperneck 22.19 -29.8725 18.7652
head 12.5417 -13.8148 5.15902
rclavicle 3.03147e-015 -2.78299e-014
rhumerus -18.9508 -25.3478 -60.4335
rradius 32.4285
rwrist 7.7467
rhand -6.18737 37.5837
rfingers 7.12502
rthumb 19.6522 8.55708
lclavicle 3.03147e-015 -2.78299e-014
lhumerus -31.2403 13.3526 81.1582
lradius 23.1342
lwrist -10.1539
lhand -22.5049 21.9597
lfingers 7.12502
lthumb 3.92118 51.9034
rfemur -12.7376 14.9454 12.9094
rtibia 24.1138
rfoot -11.9442 -7.26989
rtoes 8.09369
lfemur -9.50023 -0.362698 -15.4319
ltibia 29.9028
lfoot -21.7541 6.08204
ltoes -9.42515
103
root 10.9225 18.0357 -18.032 0.0103127 59.0426 -2.57414
lowerback 1.41001 -1.74844 -6.29769
upperback 0.0327019 -2.42329 -1.22464
thorax -0.548994 -1.18778 2.30506
lowerneck 1.98266 -19.0319 -15.762
upperneck 21.9426 -30.1294 18.9467
head 12.456 -13.9246 5.1556
rclavicle -7.55879e-014 -5.56597e-015
rhumerus -18.7672 -28.1864 -59.6868
rradius 31.5527
rwrist 9.64085
rhand -6.40691 37.3615
rfingers 7.12502
rthumb 19.4412 8.3134
lclavicle -7.55879e-014 -5.56597e-015
lhumerus -31.2596 14.1065 81.0878
lradius 23.1762
lwrist -11.2565
lhand -22.1566 21.1663
lfingers 7.12502
lthumb 4.25755 51.1035
rfemur -12.742 14.6205 13.1269
rtibia 24.1057
rfoot -11.934 -7.30937
rtoes 9.5329
lfemur -10.1221 -0.666925 -15.0995
ltibia 30.6462
lfoot -21.992 5.56727
ltoes -9.83753
104
root 10.9209 18.0264 -18.0734 -0.305378 59.4601 -2.89805
lowerback 1.85318 -1.67055 -5.82951
upperback -0.157075 -2.35511 -1.44401
thorax -1.02707 -1.13883 1.83794
lowerneck 2.35871 -19.1073 -15.6312
upperneck 21.6811 -30.3479 19.401
head 12.4023 -14.0208 5.28949
rclavicle -2.13694e-014 8.74653e-015
rhumerus -18.667 -31.7395 -58.8465
rradius 30.3402
rwrist 12.2375
rhand -6.71055 37.7704
rfingers 7.12502
rthumb 19.1492 8.69312
lclavicle -2.13694e-014 8.74653e-015
lhumerus -31.3567 13.3603 81.1932
lradius 23.6126
lwrist -10.8756
lhand -21.9947 21.334
lfingers 7.12502
lthumb 4.41392 51.268
rfemur -12.7096 13.9745 13.2118
rtibia 24.1164
rfoot -11.7895 -7.16344
rtoes 8.75712
lfemur -10.5662 -0.956374 -14.9654
ltibia 31.295
lfoot -22.0522 5.00732
ltoes -6.75889
105
root 10.9199 18.0158 -18.1161 -0.454086 59.7055 -2.94451
lowerback 2.38452 -1.59664 -5.85009
upperback -0.379555 -2.30808 -1.42773
thorax -1.55697 -1.09717 1.88713
lowerneck 3.10632 -19.0254 -16.2899
upperneck 21.203 -30.4032 20.1973
head 12.3728 -14.1192 5.70471
rclavicle 8.69683e-014 3.49861e-014
rhumerus -18.4358 -34.6473 -57.7136
rradius 29.0197
rwrist 14.7543
rhand -7.40065 37.8702
rfingers 7.12502
rthumb 18.4855 8.72857
lclavicle 8.69683e-014 3.49861e-014
lhumerus -31.2933 12.0721 81.7513
lradius 23.9967
lwrist -9.41113
lhand -22.2872 21.8894
lfingers 7.12502
lthumb 4.13142 51.8291
rfemur -12.598 13.6167 13.1562
rtibia 24.1129
rfoot -11.5777 -7.32005
rtoes 5.50383
lfemur -10.8758 -1.20224 -14.9994
ltibia 31.8504
lfoot -22.2104 4.86243
ltoes -5.58819
106
root 10.9192 18.0064 -18.1508 -0.817115 59.9961 -3.16665
lowerback 3.67471 -1.58224 -6.1747
upperback -1.14211 -2.43198 -1.08457
thorax -3.0359 -1.09632 2.48471
lowerneck 4.46 -18.6831 -17.7405
upperneck 21.038 -30.1598 20.8102
head 12.3918 -14.1866 6.29311
rclavicle 2.92835e-014 3.97569e-014
rhumerus -18.9024 -35.9083 -56.0901
rradius 28.1918
rwrist 16.0843
rhand -7.81367 37.6166
rfingers 7.12502
rthumb 18.0881 8.43769
lclavicle 2.92835e-014 3.97569e-014
lhumerus -31.6016 9.0879 82.7475
lradius 24.1325
lwrist -5.50392
lhand -23.4368 22.5492
lfingers 7.12502
lthumb 3.02129 52.5076
rfemur -12.3233 14.1351 13.2254
rtibia 24.0617
rfoot -11.4367 -8.17358
rtoes 4.34098
lfemur -11.0968 -1.45546 -14.9142
ltibia 32.341
lfoot -22.3085 4.98586
ltoes -6.23305
